<?xml version="1.0" standalone="no"?>
<!DOCTYPE svg PUBLIC "-//W3C//DTD SVG 20010904//EN"
 "http://www.w3.org/TR/2001/REC-SVG-20010904/DTD/svg10.dtd">
<svg version="1.0" xmlns="http://www.w3.org/2000/svg"
 width="512.000000pt" height="512.000000pt" viewBox="0 0 512.000000 512.000000"
 preserveAspectRatio="xMidYMid meet">
<metadata>
Created by potrace 1.14, written by Peter Selinger 2001-2017
</metadata>
<g transform="translate(0.000000,512.000000) scale(0.100000,-0.100000)"
fill="#000000" stroke="none">
<path d="M2295 4784 c-230 -31 -427 -84 -623 -169 -696 -301 -1186 -924 -1319
-1675 -31 -177 -39 -479 -17 -650 121 -928 778 -1673 1676 -1901 201 -51 345
-67 578 -64 222 3 326 16 518 64 788 196 1423 829 1621 1617 51 203 65 326 65
559 0 231 -13 341 -65 549 -217 866 -942 1521 -1839 1662 -139 22 -462 26
-595 8z m442 -89 c101 -7 111 -8 228 -31 278 -53 541 -161 780 -319 525 -347
873 -917 945 -1545 11 -99 15 -361 6 -433 -3 -23 -8 -64 -11 -92 -33 -291
-162 -633 -340 -900 -218 -328 -493 -567 -868 -752 -48 -24 -93 -43 -100 -43
-7 0 -17 -4 -23 -9 -30 -30 -380 -123 -509 -136 -33 -3 -76 -8 -95 -11 -47 -7
-340 -7 -382 0 -18 3 -55 8 -83 11 -138 14 -338 64 -485 120 -504 192 -917
567 -1158 1050 -410 824 -250 1812 400 2469 238 241 574 441 905 540 253 76
503 101 790 81z"/>
<path d="M2355 4664 c-660 -71 -1245 -436 -1594 -997 -131 -210 -241 -499
-280 -732 -5 -33 -13 -76 -16 -95 -3 -19 -9 -112 -12 -206 -16 -461 101 -872
356 -1250 91 -136 123 -175 241 -297 253 -263 583 -459 944 -562 183 -52 314
-69 541 -69 230 -1 310 5 448 35 642 136 1180 550 1466 1127 211 425 273 895
180 1361 -64 321 -209 633 -417 896 -76 97 -271 289 -370 364 -208 157 -452
280 -699 351 -190 54 -316 72 -543 75 -113 2 -223 1 -245 -1z m413 -99 c848
-94 1540 -694 1746 -1514 65 -256 77 -555 35 -821 -156 -963 -1013 -1691
-1984 -1683 -338 2 -604 63 -890 204 -537 264 -925 743 -1069 1318 -78 310
-79 665 -4 971 124 507 453 959 898 1235 270 166 599 274 890 292 58 3 106 7
108 8 5 4 214 -3 270 -10z"/>
<path d="M2327 4304 c-182 -24 -396 -88 -541 -161 l-56 -28 393 -393 392 -392
823 2 822 3 -62 105 c-82 138 -159 238 -261 342 -283 288 -645 469 -1044 522
-126 17 -340 17 -466 0z"/>
<path d="M1623 4056 l-32 -22 352 -352 352 -352 53 0 c28 0 52 2 52 4 0 5
-739 746 -743 746 -1 -1 -16 -11 -34 -24z"/>
<path d="M1492 3969 c-32 -21 -32 -22 -15 -41 10 -11 148 -150 306 -309 l288
-289 57 0 57 0 -330 330 c-181 182 -330 330 -330 330 0 0 -15 -10 -33 -21z"/>
<path d="M1367 3864 l-29 -24 255 -255 254 -255 59 0 59 0 -280 280 c-154 154
-282 280 -285 280 -3 0 -18 -12 -33 -26z"/>
<path d="M1257 3758 l-27 -33 198 -198 198 -198 57 3 57 3 -228 228 -229 229
-26 -34z"/>
<path d="M1155 3639 l-27 -32 139 -139 139 -139 56 3 57 3 -169 168 -168 167
-27 -31z"/>
<path d="M1061 3508 l-20 -33 72 -72 71 -73 58 0 57 0 -106 105 c-58 58 -107
105 -108 105 -2 0 -12 -15 -24 -32z"/>
<path d="M981 3369 l-21 -34 25 -3 c13 -2 39 -2 56 0 l30 3 -35 34 -35 34 -20
-34z"/>
<path d="M2495 3099 c-85 -20 -145 -100 -131 -174 13 -65 57 -101 182 -144 85
-30 109 -75 63 -117 -30 -27 -124 -25 -175 5 l-37 22 -30 -30 c-26 -26 -29
-32 -17 -46 30 -37 93 -59 180 -63 78 -3 90 -1 139 25 64 33 91 75 91 143 0
85 -47 132 -173 172 -60 19 -97 45 -97 70 0 5 9 17 20 28 27 27 93 26 145 0
l40 -21 28 31 c24 27 26 34 15 47 -35 43 -165 71 -243 52z"/>
<path d="M2951 3095 c-51 -16 -86 -46 -111 -96 -39 -76 -46 -220 -15 -309 36
-102 98 -144 205 -138 86 5 131 36 169 117 23 50 26 68 25 161 -1 112 -17 169
-63 217 -50 52 -135 72 -210 48z m111 -102 c37 -41 50 -202 24 -288 -23 -77
-98 -87 -132 -18 -25 52 -26 233 -1 280 9 17 22 33 29 36 28 11 66 6 80 -10z"/>
<path d="M1017 2833 c-42 -142 -77 -261 -77 -265 0 -5 29 -8 64 -8 l64 0 13
57 14 58 77 0 77 1 13 -56 14 -55 67 -3 c37 -2 67 0 67 3 0 3 -21 72 -46 153
-25 81 -52 170 -59 197 -8 28 -23 77 -34 110 l-19 60 -78 3 -79 2 -78 -257z
m208 -49 c4 -19 0 -20 -47 -20 -29 1 -53 6 -55 13 -4 10 9 67 39 178 l11 40
23 -95 c13 -52 26 -104 29 -116z"/>
<path d="M1404 3058 c8 -48 15 -114 21 -193 4 -38 8 -77 10 -85 2 -8 7 -51 11
-95 3 -44 8 -87 10 -95 1 -8 3 -18 3 -22 1 -5 30 -8 65 -8 75 0 72 -4 81 115
3 44 8 87 10 95 2 8 7 44 10 80 4 36 8 66 10 68 1 1 10 -79 20 -178 l18 -181
66 3 66 3 27 225 c14 124 28 242 31 263 l5 37 -54 0 c-30 0 -54 -3 -55 -7 0
-5 -2 -15 -4 -24 -2 -13 -17 -262 -18 -326 -2 -56 -15 2 -26 112 -20 198 -14
185 -76 185 -60 0 -58 5 -70 -135 -4 -38 -10 -86 -14 -105 -4 -20 -7 -44 -5
-54 1 -10 -1 -15 -5 -10 -7 7 -20 220 -21 342 0 20 -4 22 -60 22 l-61 0 5 -32z"/>
<path d="M1939 3078 c-1 -16 -1 -489 0 -506 1 -10 39 -12 173 -10 l172 3 -1
33 c-1 17 -2 37 -2 42 -1 6 -45 10 -111 10 l-111 0 2 71 2 70 41 -1 c23 -1 64
-1 92 -1 l50 1 1 43 1 43 -92 -1 -91 0 -3 63 -3 62 33 1 c18 0 65 0 104 0 l72
0 6 31 c12 61 21 58 -164 58 -129 0 -170 -3 -171 -12z"/>
<path d="M3289 3063 c-1 -16 -2 -42 -4 -59 -1 -17 -5 -92 -9 -165 -4 -74 -9
-167 -12 -206 l-6 -73 56 0 56 0 1 193 1 192 14 -75 c8 -41 22 -108 30 -148
l16 -73 47 3 46 3 26 140 27 140 2 -145 c1 -80 1 -164 0 -187 l-1 -43 56 0
c51 0 58 4 57 30 0 33 -15 289 -18 317 -2 21 -4 71 -5 111 l-1 72 -68 0 -67 0
-22 -147 c-13 -82 -25 -155 -28 -163 -3 -8 -16 44 -29 115 -13 72 -26 145 -29
163 l-6 32 -64 0 c-64 0 -65 0 -66 -27z"/>
<path d="M3780 2825 l0 -265 173 0 174 0 1 45 2 45 -113 0 -113 0 1 68 1 67
92 3 92 3 0 42 0 43 -90 -1 c-49 0 -90 2 -91 5 -7 30 -4 112 4 117 6 3 52 5
103 5 l94 -2 5 28 c15 68 31 62 -161 62 l-174 0 0 -265z"/>
<path d="M1731 2270 c-53 -13 -86 -102 -68 -185 12 -57 42 -85 89 -85 71 0
107 64 95 167 -8 76 -56 118 -116 103z m59 -40 c11 -11 21 -32 22 -47 5 -102
-4 -141 -39 -154 -40 -15 -70 10 -79 66 -9 63 1 117 27 138 28 22 44 22 69 -3z"/>
<path d="M1960 2270 c-41 -10 -70 -64 -70 -132 0 -93 32 -138 100 -138 44 0
77 36 85 94 18 118 -33 196 -115 176z m53 -32 c31 -24 42 -113 22 -178 -10
-31 -52 -44 -80 -26 -28 18 -34 40 -31 117 2 51 6 65 25 80 27 22 41 24 64 7z"/>
<path d="M2650 2269 c-42 -9 -62 -34 -58 -74 3 -26 12 -34 71 -63 55 -26 67
-36 67 -56 0 -13 -7 -29 -16 -37 -19 -16 -79 -15 -99 1 -14 12 -35 6 -35 -9 0
-17 61 -33 107 -28 55 6 83 35 77 80 -5 40 -17 53 -75 73 -56 21 -74 37 -65
59 11 28 51 39 85 22 24 -12 32 -12 40 -3 8 9 5 16 -12 23 -36 18 -50 20 -87
12z"/>
<path d="M1460 2134 c0 -122 2 -135 17 -132 13 2 17 14 16 61 l0 57 53 0 c41
0 54 4 54 15 0 11 -13 15 -54 15 l-54 0 1 45 c0 25 5 45 11 46 6 0 33 1 60 2
29 1 51 7 54 15 3 9 -17 12 -77 12 l-81 0 0 -136z"/>
<path d="M2130 2136 l0 -136 48 0 c56 0 108 28 123 68 6 15 9 53 7 85 -6 81
-35 109 -118 115 l-60 4 0 -136z m120 84 c19 -19 23 -31 23 -85 0 -51 -3 -62
-23 -83 -13 -14 -33 -22 -54 -22 l-33 0 0 105 0 105 34 0 c20 0 41 -8 53 -20z"/>
<path d="M2805 2261 c-8 -15 12 -23 48 -19 l32 3 3 -122 c2 -100 5 -123 17
-123 12 0 15 21 15 123 l0 123 40 -4 c32 -3 40 -1 40 12 0 14 -14 16 -94 16
-52 0 -97 -4 -101 -9z"/>
<path d="M3087 2259 c-41 -24 -58 -114 -37 -191 24 -84 126 -94 166 -16 25 48
16 159 -16 193 -25 27 -79 34 -113 14z m84 -28 c18 -14 23 -29 25 -73 2 -77
-5 -107 -31 -124 -28 -18 -70 -5 -80 26 -20 65 -9 154 22 178 23 17 37 15 64
-7z"/>
<path d="M3290 2136 c0 -114 2 -136 15 -136 15 0 20 26 15 79 -2 21 13 40 31
41 3 0 23 -27 43 -60 25 -41 44 -60 57 -60 22 0 22 1 -23 68 l-29 43 32 29
c27 26 31 35 25 63 -10 48 -28 61 -101 65 l-65 4 0 -136z m118 91 c6 -5 12
-23 12 -38 0 -32 -27 -49 -76 -49 -23 0 -25 3 -23 48 2 26 7 50 11 53 12 8 59
-1 76 -14z"/>
<path d="M3530 2135 l0 -135 74 0 c56 0 75 4 80 15 4 12 -6 15 -60 15 l-65 0
3 48 3 47 48 -2 c36 -2 47 1 47 12 0 11 -12 15 -50 15 l-50 0 0 45 c0 36 4 45
18 46 9 1 35 2 56 3 22 0 41 7 43 14 4 9 -15 12 -71 12 l-76 0 0 -135z"/>
<path d="M991 1733 c262 -479 718 -809 1250 -904 130 -24 394 -32 524 -17 98
11 264 48 357 79 88 29 244 95 263 111 6 5 -146 164 -380 398 l-390 390 -828
0 -828 0 32 -57z"/>
<path d="M2761 1753 c19 -21 185 -188 370 -372 l337 -333 31 18 c17 10 31 21
31 25 0 4 -156 162 -346 353 l-345 346 -56 0 -55 0 33 -37z"/>
<path d="M3270 1465 c179 -179 328 -325 333 -325 4 0 21 10 37 21 l29 22 -303
303 -303 304 -59 0 -59 0 325 -325z"/>
<path d="M3445 1510 l280 -280 30 30 30 30 -250 250 -250 250 -60 0 -60 0 280
-280z"/>
<path d="M3612 1565 c124 -124 228 -225 231 -225 3 0 16 14 28 31 l22 31 -194
194 -194 194 -59 0 -60 0 226 -225z"/>
<path d="M3620 1785 c0 -3 72 -77 161 -166 169 -169 171 -170 201 -116 9 17
-6 36 -123 153 l-134 134 -52 0 c-29 0 -53 -2 -53 -5z"/>
<path d="M3935 1690 c55 -55 102 -100 105 -100 6 0 40 54 40 64 0 4 -30 36
-66 71 -65 64 -66 65 -122 65 l-57 0 100 -100z"/>
<path d="M4090 1755 l33 -34 13 24 c7 14 16 29 19 35 4 6 -14 10 -46 10 l-53
0 34 -35z"/>
</g>
</svg>
